<?xml version="1.0" standalone="no"?>
<svg xmlns:xlink="http://www.w3.org/1999/xlink" id="wave" style="transform:rotate(180deg); transition: 0.3s" viewBox="0 0 1440 190" version="1.1" xmlns="http://www.w3.org/2000/svg"><defs><linearGradient id="sw-gradient-0" x1="0" x2="0" y1="1" y2="0"><stop stop-color="rgba(5, 66, 213, 1)" offset="0%"/><stop stop-color="rgba(91.286, 179.703, 209.82, 1)" offset="100%"/></linearGradient></defs><path style="transform:translate(0, 0px); opacity:1" fill="url(#sw-gradient-0)" d="M0,114L21.8,95C43.6,76,87,38,131,44.3C174.5,51,218,101,262,117.2C305.5,133,349,114,393,98.2C436.4,82,480,70,524,66.5C567.3,63,611,70,655,60.2C698.2,51,742,25,785,38C829.1,51,873,101,916,117.2C960,133,1004,114,1047,107.7C1090.9,101,1135,108,1178,101.3C1221.8,95,1265,76,1309,72.8C1352.7,70,1396,82,1440,79.2C1483.6,76,1527,57,1571,50.7C1614.5,44,1658,51,1702,63.3C1745.5,76,1789,95,1833,107.7C1876.4,120,1920,127,1964,133C2007.3,139,2051,146,2095,123.5C2138.2,101,2182,51,2225,47.5C2269.1,44,2313,89,2356,107.7C2400,127,2444,120,2487,126.7C2530.9,133,2575,152,2618,145.7C2661.8,139,2705,108,2749,91.8C2792.7,76,2836,76,2880,69.7C2923.6,63,2967,51,3011,63.3C3054.5,76,3098,114,3120,133L3141.8,152L3141.8,190L3120,190C3098.2,190,3055,190,3011,190C2967.3,190,2924,190,2880,190C2836.4,190,2793,190,2749,190C2705.5,190,2662,190,2618,190C2574.5,190,2531,190,2487,190C2443.6,190,2400,190,2356,190C2312.7,190,2269,190,2225,190C2181.8,190,2138,190,2095,190C2050.9,190,2007,190,1964,190C1920,190,1876,190,1833,190C1789.1,190,1745,190,1702,190C1658.2,190,1615,190,1571,190C1527.3,190,1484,190,1440,190C1396.4,190,1353,190,1309,190C1265.5,190,1222,190,1178,190C1134.5,190,1091,190,1047,190C1003.6,190,960,190,916,190C872.7,190,829,190,785,190C741.8,190,698,190,655,190C610.9,190,567,190,524,190C480,190,436,190,393,190C349.1,190,305,190,262,190C218.2,190,175,190,131,190C87.3,190,44,190,22,190L0,190Z"/><defs><linearGradient id="sw-gradient-1" x1="0" x2="0" y1="1" y2="0"><stop stop-color="rgba(77.827, 173.971, 255, 1)" offset="0%"/><stop stop-color="rgba(5, 66, 213, 1)" offset="100%"/></linearGradient></defs><path style="transform:translate(0, 50px); opacity:0.9" fill="url(#sw-gradient-1)" d="M0,171L21.8,155.2C43.6,139,87,108,131,95C174.5,82,218,89,262,98.2C305.5,108,349,120,393,114C436.4,108,480,82,524,69.7C567.3,57,611,57,655,76C698.2,95,742,133,785,152C829.1,171,873,171,916,167.8C960,165,1004,158,1047,129.8C1090.9,101,1135,51,1178,50.7C1221.8,51,1265,101,1309,101.3C1352.7,101,1396,51,1440,53.8C1483.6,57,1527,114,1571,136.2C1614.5,158,1658,146,1702,145.7C1745.5,146,1789,158,1833,164.7C1876.4,171,1920,171,1964,148.8C2007.3,127,2051,82,2095,76C2138.2,70,2182,101,2225,114C2269.1,127,2313,120,2356,98.2C2400,76,2444,38,2487,41.2C2530.9,44,2575,89,2618,117.2C2661.8,146,2705,158,2749,139.3C2792.7,120,2836,70,2880,44.3C2923.6,19,2967,19,3011,15.8C3054.5,13,3098,6,3120,3.2L3141.8,0L3141.8,190L3120,190C3098.2,190,3055,190,3011,190C2967.3,190,2924,190,2880,190C2836.4,190,2793,190,2749,190C2705.5,190,2662,190,2618,190C2574.5,190,2531,190,2487,190C2443.6,190,2400,190,2356,190C2312.7,190,2269,190,2225,190C2181.8,190,2138,190,2095,190C2050.9,190,2007,190,1964,190C1920,190,1876,190,1833,190C1789.1,190,1745,190,1702,190C1658.2,190,1615,190,1571,190C1527.3,190,1484,190,1440,190C1396.4,190,1353,190,1309,190C1265.5,190,1222,190,1178,190C1134.5,190,1091,190,1047,190C1003.6,190,960,190,916,190C872.7,190,829,190,785,190C741.8,190,698,190,655,190C610.9,190,567,190,524,190C480,190,436,190,393,190C349.1,190,305,190,262,190C218.2,190,175,190,131,190C87.3,190,44,190,22,190L0,190Z"/></svg>